HIERARCHY
ROOT joint_Root
{
	OFFSET 0.0 0.0 0.0
	CHANNELS 6 Xposition Yposition Zposition Zrotation Xrotation Yrotation 
	JOINT Hips
	{
		OFFSET -17.1583 93.1646 452.98
		CHANNELS 6 Xposition Yposition Zposition Zrotation Xrotation Yrotation 
		JOINT Spine
		{
			OFFSET 15.7357 0.0 0.0
			CHANNELS 6 Xposition Yposition Zposition Zrotation Xrotation Yrotation 
			JOINT Chest
			{
				OFFSET 8.98455 -0.406207 0.0
				CHANNELS 6 Xposition Yposition Zposition Zrotation Xrotation Yrotation 
				JOINT Neck
				{
					OFFSET 16.3773 0.0 0.0
					CHANNELS 6 Xposition Yposition Zposition Zrotation Xrotation Yrotation 
					JOINT Head
					{
						OFFSET 6.45672 0.0 0.0
						CHANNELS 6 Xposition Yposition Zposition Zrotation Xrotation Yrotation 
						End Site
						{
							OFFSET 0.0 0.0 0.0
						}
					}
				}
				JOINT Shoulder_L
				{
					OFFSET 12.9942 -0.242716 4.98039
					CHANNELS 6 Xposition Yposition Zposition Zrotation Xrotation Yrotation 
					JOINT UpperArm_L
					{
						OFFSET 5.34809 0.0 0.0
						CHANNELS 6 Xposition Yposition Zposition Zrotation Xrotation Yrotation 
						JOINT LowerArm_L
						{
							OFFSET 24.3286 1.87007e-05 0.0
							CHANNELS 6 Xposition Yposition Zposition Zrotation Xrotation Yrotation 
							JOINT Hand_L
							{
								OFFSET 22.2916 0.0 0.0
								CHANNELS 6 Xposition Yposition Zposition Zrotation Xrotation Yrotation 
								End Site
								{
									OFFSET 0.0 0.0 0.0
								}
							}
						}
					}
				}
				JOINT Shoulder_R
				{
					OFFSET 12.9945 -0.242716 -4.98039
					CHANNELS 6 Xposition Yposition Zposition Zrotation Xrotation Yrotation 
					JOINT UpperArm_R
					{
						OFFSET -5.34813 0.0 0.0
						CHANNELS 6 Xposition Yposition Zposition Zrotation Xrotation Yrotation 
						JOINT LowerArm_R
						{
							OFFSET -24.3289 0.000322201 0.0
							CHANNELS 6 Xposition Yposition Zposition Zrotation Xrotation Yrotation 
							JOINT Hand_R
							{
								OFFSET -22.2915 -0.000108084 0.0
								CHANNELS 6 Xposition Yposition Zposition Zrotation Xrotation Yrotation 
								End Site
								{
									OFFSET 0.0 0.0 0.0
								}
							}
						}
					}
				}
			}
		}
		JOINT UpperLeg_L
		{
			OFFSET -2.19248 -6.46944 0.0
			CHANNELS 6 Xposition Yposition Zposition Zrotation Xrotation Yrotation 
			JOINT LowerLeg_L
			{
				OFFSET 39.0811 0.0 -1.23785e-05
				CHANNELS 6 Xposition Yposition Zposition Zrotation Xrotation Yrotation 
				JOINT Foot_L
				{
					OFFSET 40.9854 0.0 -1.26872e-05
					CHANNELS 6 Xposition Yposition Zposition Zrotation Xrotation Yrotation 
					JOINT Toes_L
					{
						OFFSET 11.7543 0.0 0.0
						CHANNELS 6 Xposition Yposition Zposition Zrotation Xrotation Yrotation 
						End Site
						{
							OFFSET 0.0 0.0 0.0
						}
					}
				}
			}
		}
		JOINT UpperLeg_R
		{
			OFFSET -2.19251 6.46944 0.0
			CHANNELS 6 Xposition Yposition Zposition Zrotation Xrotation Yrotation 
			JOINT LowerLeg_R
			{
				OFFSET -39.0811 -0.00228153 -0.0401928
				CHANNELS 6 Xposition Yposition Zposition Zrotation Xrotation Yrotation 
				JOINT Foot_R
				{
					OFFSET -40.9854 0.0 0.0
					CHANNELS 6 Xposition Yposition Zposition Zrotation Xrotation Yrotation 
					JOINT Toes_R
					{
						OFFSET -11.7543 0.0 0.0
						CHANNELS 6 Xposition Yposition Zposition Zrotation Xrotation Yrotation 
						End Site
						{
							OFFSET 0.0 0.0 0.0
						}
					}
				}
			}
		}
	}
}
MOTION
Frames:	4
Frame Time:	0.0333333
0.000000 0.000000 0.000000 0.000000 0.000000 -0.000000 -215.664000 91.784100 238.188000 101.378000 85.024600 -10.146100 15.735700 0.000005 -0.000001 64.828700 87.104300 -64.128400 8.984550 -0.406207 -0.000000 -2.509800 -2.525190 1.345510 16.377300 -0.000001 -0.000001 7.940370 4.959610 -4.092660 6.456720 -0.000001 -0.000000 13.386000 7.646490 0.365172 12.994200 -0.242716 4.980390 -92.690100 7.403570 -69.966400 5.348090 -0.000007 -0.000001 -74.607400 0.333692 -3.886190 24.328600 0.000019 0.000005 18.158100 30.086800 -33.188900 22.291600 -0.000001 0.000005 52.317400 4.627530 14.430600 12.994500 -0.242716 -4.980390 89.123900 2.609140 -71.430700 -5.348130 -0.000001 -0.000004 -71.937800 2.100470 6.388240 -24.328900 0.000322 -0.000009 0.466371 3.650910 -7.302370 -22.291500 -0.000108 -0.000004 36.268300 5.385660 -2.478070 -2.192480 -6.469440 -0.000000 174.092000 0.620824 -8.317760 39.081100 -0.000007 -0.000012 0.339811 -0.731624 24.913900 40.985400 -0.000006 -0.000013 8.781410 11.315200 -69.573800 11.754300 -0.000000 0.000003 0.001198 0.144172 -10.730100 -2.192510 6.469440 -0.000001 178.249000 -5.333540 155.332000 -39.081100 -0.002282 -0.040193 0.034466 -0.013598 66.527300 -40.985400 0.000008 0.000006 -5.870600 -11.893900 -55.862300 -11.754300 -0.000006 -0.000006 -0.003006 0.208336 -8.119590
0.000000 0.000000 0.000000 0.000000 0.000000 -0.000000 -213.138000 92.184700 238.629000 84.720000 85.455000 6.189360 15.735700 0.000005 -0.000001 59.391200 87.047900 -58.212200 8.984550 -0.406207 -0.000000 -2.652980 -3.112400 2.286530 16.377300 -0.000001 -0.000001 8.579220 4.940350 -4.099220 6.456720 -0.000001 -0.000000 13.597700 7.961860 0.512645 12.994200 -0.242716 4.980390 -92.575900 7.156510 -70.144700 5.348090 -0.000007 -0.000001 -74.458200 -2.303690 -4.723610 24.328600 0.000019 0.000005 24.972100 31.101300 -42.030200 22.291600 -0.000001 0.000005 53.938600 4.537780 15.962800 12.994500 -0.242716 -4.980390 89.236800 2.225030 -71.061200 -5.348130 -0.000001 -0.000004 -70.675600 0.166677 8.416120 -24.328900 0.000322 -0.000009 0.477820 4.410990 -6.204080 -22.291500 -0.000108 -0.000004 37.994300 5.385910 -2.486350 -2.192480 -6.469440 -0.000000 176.063000 -2.609490 -5.327560 39.081100 -0.000007 -0.000012 0.293455 -0.718676 22.212200 40.985400 -0.000006 -0.000013 9.473680 14.711500 -71.016600 11.754300 -0.000000 0.000003 0.000721 0.154452 -10.312900 -2.192510 6.469440 -0.000001 179.776000 -8.258180 153.419000 -39.081100 -0.002282 -0.040193 -0.034642 0.021608 60.272500 -40.985400 0.000008 0.000006 -4.397240 -16.880500 -61.783600 -11.754300 -0.000006 -0.000006 -0.003727 0.216240 -7.797850
0.000000 0.000000 0.000000 0.000000 0.000000 -0.000000 -210.642000 92.314600 238.973000 74.960100 85.458200 15.474600 15.735700 0.000005 -0.000001 55.276300 87.032000 -53.888400 8.984550 -0.406207 -0.000000 -2.845530 -3.508400 2.689620 16.377300 -0.000001 -0.000001 8.715090 4.932440 -3.834750 6.456720 -0.000001 -0.000000 13.862400 8.303670 0.645362 12.994200 -0.242716 4.980390 -92.532900 7.110730 -70.335200 5.348090 -0.000007 -0.000001 -73.936800 -5.404320 -5.213410 24.328600 0.000019 0.000005 32.809100 31.071800 -51.314100 22.291600 -0.000001 0.000005 55.746600 4.438150 17.601500 12.994500 -0.242716 -4.980390 89.319000 1.955950 -70.799800 -5.348130 -0.000001 -0.000004 -69.108800 -2.266740 10.188900 -24.328900 0.000322 -0.000009 0.471621 4.964880 -5.444980 -22.291500 -0.000108 -0.000004 39.594400 5.390030 -2.617670 -2.192480 -6.469440 -0.000000 177.398000 -5.425540 -2.784740 39.081100 -0.000007 -0.000012 0.250763 -0.691361 19.936700 40.985400 -0.000006 -0.000013 10.134300 17.635700 -72.211200 11.754300 -0.000000 0.000003 0.001004 0.148545 -10.552600 -2.192510 6.469440 -0.000001 179.715000 -11.530500 152.155000 -39.081100 -0.002282 -0.040193 -0.037258 0.032213 51.502000 -40.985400 0.000008 0.000006 -4.181980 -19.508300 -63.745000 -11.754300 -0.000006 -0.000006 -0.005145 0.230529 -7.215740
0.000000 0.000000 0.000000 0.000000 0.000000 -0.000000 -208.112000 92.161000 239.216000 73.932000 85.151300 16.234800 15.735700 0.000005 -0.000001 54.148900 87.004200 -52.810900 8.984550 -0.406207 -0.000000 -2.868280 -3.631930 2.586010 16.377300 -0.000001 -0.000001 8.557070 4.962880 -3.454360 6.456720 -0.000001 -0.000000 13.824100 8.606880 0.898661 12.994200 -0.242716 4.980390 -92.489400 7.008900 -70.389900 5.348090 -0.000007 -0.000001 -73.433100 -8.678550 -5.509500 24.328600 0.000019 0.000005 38.657600 28.767800 -58.966900 22.291600 -0.000001 0.000005 56.895400 4.379930 18.541300 12.994500 -0.242716 -4.980390 89.369000 1.808710 -70.763100 -5.348130 -0.000001 -0.000004 -67.554400 -4.104910 11.868200 -24.328900 0.000322 -0.000009 0.396874 4.303250 -5.287900 -22.291500 -0.000108 -0.000004 40.977200 5.385190 -2.463240 -2.192480 -6.469440 -0.000000 178.186000 -8.370340 -0.365532 39.081100 -0.000007 -0.000012 0.233438 -0.699927 18.445000 40.985400 -0.000006 -0.000013 10.869000 20.155700 -73.984300 11.754300 -0.000000 0.000003 0.000161 0.164877 -9.889640 -2.192510 6.469440 -0.000001 178.499000 -14.824100 151.676000 -39.081100 -0.002282 -0.040193 -0.014859 0.020440 41.578100 -40.985400 0.000008 0.000006 -4.019450 -18.644100 -63.492100 -11.754300 -0.000006 -0.000006 -0.006112 0.239513 -6.849450
